#N canvas 827 239 527 327 12;
#N canvas 0 22 450 278 (subpatch) 0;
#X text 0 0 plugdatainfo <?xml version="1.0" encoding="UTF-8"?> <plugdatainfo/>;
#X coords 0 1 100 -1 1 1 1;
#X restore 0 0 graph;
#X obj 343 5 midiin;
#X obj 381 54 note.in;
#X obj 385 115 mtof;
#X obj 169 79 nbx 4 18 -1e+37 1e+37 0 0 empty empty empty 0 -8 0 10 #e4e4e4 #5a5a5a #5a5a5a 0 256;
#X obj 220 79 nbx 4 18 -1e+37 1e+37 0 0 empty empty empty 0 -8 0 10 #e4e4e4 #5a5a5a #5a5a5a 0 256;
#X obj 190 179 / 1.02;
#X obj 241 179 / 1.02;
#X obj 190 244 cycle~;
#X obj 249 244 cycle~;
#X obj 212 340 *~ 0;
#X obj 385 252 cycle~;
#X obj 398 352 s2f~;
#X obj 31 430 gain~ 1 0 20 0 0.572;
#X obj 119 1370 dac~;
#X obj 508 323 adsr~;
#X obj 470 219 / 127;
#X obj 499 167 nbx 4 18 -1e+37 1e+37 0 0 empty empty empty 0 -8 0 10 #e4e4e4 #5a5a5a #5a5a5a 0 256;
#X obj 537 266 nbx 4 18 0 1000 0 1 empty empty empty 0 -8 0 10 #e4e4e4 #5a5a5a #5a5a5a 0 256;
#X obj 585 266 nbx 4 18 -1e+37 1e+37 0 1 empty empty empty 0 -8 0 10 #e4e4e4 #5a5a5a #5a5a5a 0 256;
#X obj 636 266 nbx 4 18 -1e+37 1e+37 0 1 empty empty empty 0 -8 0 10 #e4e4e4 #5a5a5a #5a5a5a 12.7 256;
#X obj 687 266 nbx 4 18 -1e+37 1e+37 0 1 empty empty empty 0 -8 0 10 #e4e4e4 #5a5a5a #5a5a5a 494 256;
#X msg 125 1866 start, f 7;
#X msg 173 1866 stop, f 6;
#X obj 387 916 delwrite~ tapedelay 2000;
#X obj 434 1124 line~;
#X msg 434 1088 \$1 100, f 8;
#X obj 434 1059 nbx 4 18 100 1000 0 1 empty empty delay\ time 0 -8 0 10 #191919 #ffffff #ffffff 100 256;
#X obj 434 1198 lop~ 8000;
#X obj 435 1234 lop~ 8000;
#X obj 435 1272 hip~ 300;
#X obj 435 1388 s~ feedback;
#X obj 413 841 r~ feedback;
#X obj 435 1339 *~;
#X obj 511 1315 nbx 4 18 0 0.98 0 1 empty empty feedback 0 -8 0 10 #191919 #ffffff #ffffff 0.5 256;
#X obj 359 1059 nbx 4 18 0 1 0 1 empty empty wet\ signal 0 -8 0 10 #191919 #ffffff #ffffff 0 256;
#X obj 434 1159 delread4~ tapedelay 2000;
#X obj 42 1702 writesf~ 2;
#X obj 371 636 readsf~;
#X msg 394 581 1;
#X obj 394 556 t b b;
#X obj 394 537 bng 15 250 50 0 empty empty empty 17 7 0 10 #fcfcfc #000000 #000000;
#X obj 440 631 bng 15 250 50 0 empty empty empty 17 7 0 10 #fcfcfc #000000 #000000;
#X text 417 534 play;
#X obj 484 676 spigot;
#X obj 507 642 tgl 15 1 empty empty empty 17 7 0 10 #fcfcfc #000000 #000000 1 1;
#X text 528 638 loop;
#X msg 455 610 open synthloop2edit.wav, f 24;
#X obj 889 709 readsf~;
#X msg 911 580 1;
#X obj 911 555 t b b;
#X obj 911 536 bng 15 250 50 0 empty empty empty 17 7 0 10 #fcfcfc #000000 #000000;
#X obj 955 653 bng 15 250 50 0 empty empty empty 17 7 0 10 #fcfcfc #000000 #000000;
#X text 934 533 play;
#X obj 975 688 spigot;
#X obj 994 650 tgl 15 1 empty empty empty 17 7 0 10 #fcfcfc #000000 #000000 1 1;
#X text 1014 649 loop;
#X msg 941 609 open synthloop3edit.wav, f 24;
#X obj 616 488 bng 61 250 50 0 empty empty empty 17 7 0 10 #191919 #ffffff #ffffff;
#X text 148 1806 SYNTH RECORD, f 15;
#X obj 963 41 midiin;
#X obj 1001 90 note.in;
#X obj 1005 151 mtof;
#X obj 789 115 nbx 4 18 -1e+37 1e+37 0 1 empty empty empty 0 -8 0 10 #e4e4e4 #5a5a5a #5a5a5a 0.3 256;
#X obj 840 115 nbx 4 18 -1e+37 1e+37 0 1 empty empty empty 0 -8 0 10 #e4e4e4 #5a5a5a #5a5a5a 200 256;
#X obj 810 215 / 1.02;
#X obj 861 215 / 1.02;
#X obj 810 280 cycle~;
#X obj 869 280 cycle~;
#X obj 832 376 *~ 0;
#X obj 1005 288 cycle~;
#X obj 1018 388 s2f~;
#X obj 1128 359 adsr~;
#X obj 1090 255 / 127;
#X obj 1119 203 nbx 4 18 -1e+37 1e+37 0 0 empty empty empty 0 -8 0 10 #e4e4e4 #5a5a5a #5a5a5a 0 256;
#X obj 1157 302 nbx 4 18 0 1000 0 1 empty empty empty 0 -8 0 10 #e4e4e4 #5a5a5a #5a5a5a 0 256;
#X obj 1205 302 nbx 4 18 -1e+37 1e+37 0 1 empty empty empty 0 -8 0 10 #e4e4e4 #5a5a5a #5a5a5a 0 256;
#X obj 1256 302 nbx 4 18 -1e+37 1e+37 0 1 empty empty empty 0 -8 0 10 #e4e4e4 #5a5a5a #5a5a5a 12.7 256;
#X obj 1307 302 nbx 4 18 -1e+37 1e+37 0 1 empty empty empty 0 -8 0 10 #e4e4e4 #5a5a5a #5a5a5a 48 256;
#X text 499 65 BELL SYNTH, f 12;
#X text 1125 59 BASS SYNTH, f 13;
#X obj 1171 724 readsf~;
#X msg 1193 595 1;
#X obj 1193 570 t b b;
#X obj 1193 551 bng 15 250 50 0 empty empty empty 17 7 0 10 #fcfcfc #000000 #000000;
#X obj 1237 668 bng 15 250 50 0 empty empty empty 17 7 0 10 #fcfcfc #000000 #000000;
#X text 1216 548 play;
#X obj 1257 703 spigot;
#X obj 1276 665 tgl 15 1 empty empty empty 17 7 0 10 #fcfcfc #000000 #000000 1 1;
#X text 1299 662 loop;
#X msg 1223 627 open bassloop1edit.wav, f 23;
#X text 585 458 DREAMSCAPE LOOPER, f 20;
#X obj 1863 41 midiin;
#X obj 1901 90 note.in;
#X obj 1905 151 mtof;
#X obj 1689 115 nbx 4 18 -1e+37 1e+37 0 1 empty empty empty 0 -8 0 10 #e4e4e4 #5a5a5a #5a5a5a 0.66 256;
#X obj 1740 115 nbx 4 18 -1e+37 1e+37 0 1 empty empty empty 0 -8 0 10 #e4e4e4 #5a5a5a #5a5a5a 200 256;
#X obj 1710 215 / 1.02;
#X obj 1710 280 cycle~;
#X obj 1769 280 cycle~;
#X obj 1732 376 *~ 0;
#X obj 1905 288 cycle~;
#X obj 1918 388 s2f~;
#X obj 2028 359 adsr~;
#X obj 1990 255 / 127;
#X obj 2019 203 nbx 4 18 -1e+37 1e+37 0 0 empty empty empty 0 -8 0 10 #e4e4e4 #5a5a5a #5a5a5a 0 256;
#X obj 2057 302 nbx 4 18 0 1000 0 1 empty empty empty 0 -8 0 10 #e4e4e4 #5a5a5a #5a5a5a 426 256;
#X obj 2105 302 nbx 4 18 -1e+37 1e+37 0 1 empty empty empty 0 -8 0 10 #e4e4e4 #5a5a5a #5a5a5a 128 256;
#X obj 2156 302 nbx 4 18 -1e+37 1e+37 0 1 empty empty empty 0 -8 0 10 #e4e4e4 #5a5a5a #5a5a5a 6.5 256;
#X obj 2214 321 nbx 4 18 -1e+37 1e+37 0 1 empty empty empty 0 -8 0 10 #e4e4e4 #5a5a5a #5a5a5a 48 256;
#X obj 1761 215 / 0.7;
#X text 2025 63 NIGHTMARE SYNTH1, f 18;
#X obj 2285 920 readsf~;
#X msg 2299 828 1;
#X obj 2294 766 t b b;
#X obj 2299 784 bng 15 250 50 0 empty empty empty 17 7 0 10 #fcfcfc #000000 #000000;
#X obj 2340 841 bng 15 250 50 0 empty empty empty 17 7 0 10 #fcfcfc #000000 #000000;
#X text 2317 744 play;
#X obj 2389 902 spigot;
#X obj 2408 864 tgl 15 1 empty empty empty 17 7 0 10 #fcfcfc #000000 #000000 1 1;
#X text 2428 863 loop;
#X obj 2548 952 readsf~;
#X msg 2570 823 1;
#X obj 2570 798 t b b;
#X obj 2570 779 bng 15 250 50 0 empty empty empty 17 7 0 10 #fcfcfc #000000 #000000;
#X obj 2614 896 bng 15 250 50 0 empty empty empty 17 7 0 10 #fcfcfc #000000 #000000;
#X text 2593 776 play;
#X obj 2634 931 spigot;
#X obj 2653 893 tgl 15 1 empty empty empty 17 7 0 10 #fcfcfc #000000 #000000 1 1;
#X text 2673 892 loop;
#X obj 2452 632 bng 65 250 50 0 empty empty empty 17 7 0 10 #191919 #ffffff #ffffff;
#X obj 2809 985 readsf~;
#X msg 2818 856 1;
#X obj 2818 831 t b b;
#X obj 2818 812 bng 15 250 50 0 empty empty empty 17 7 0 10 #fcfcfc #000000 #000000;
#X obj 2862 929 bng 15 250 50 0 empty empty empty 17 7 0 10 #fcfcfc #000000 #000000;
#X text 2841 809 play;
#X obj 2882 964 spigot;
#X obj 2901 926 tgl 15 1 empty empty empty 17 7 0 10 #fcfcfc #000000 #000000 1 1;
#X text 2921 925 loop;
#X text 2403 594 NIGHTMARE LOOPER, f 19;
#X obj 1509 457 bng 74 250 50 0 empty empty empty 17 7 0 10 #191919 #ffffff #ffffff;
#X text 1504 424 MASTER BNG, f 12;
#X obj 2482 52 midiin;
#X obj 2520 101 note.in;
#X obj 2524 162 mtof;
#X obj 2308 126 nbx 4 18 -1e+37 1e+37 0 1 empty empty empty 0 -8 0 10 #e4e4e4 #5a5a5a #5a5a5a 0 256;
#X obj 2359 126 nbx 4 18 0 4000 0 1 empty empty empty 0 -8 0 10 #e4e4e4 #5a5a5a #5a5a5a 1159 256;
#X obj 2329 226 / 1.02;
#X obj 2329 291 cycle~;
#X obj 2388 291 cycle~;
#X obj 2351 387 *~ 0;
#X obj 2524 299 cycle~;
#X obj 2537 399 s2f~;
#X obj 2647 370 adsr~;
#X obj 2609 266 / 127;
#X obj 2638 214 nbx 4 18 -1e+37 1e+37 0 0 empty empty empty 0 -8 0 10 #e4e4e4 #5a5a5a #5a5a5a 0 256;
#X obj 2676 313 nbx 4 18 0 1000 0 1 empty empty empty 0 -8 0 10 #e4e4e4 #5a5a5a #5a5a5a 426 256;
#X obj 2724 313 nbx 4 18 -1e+37 1e+37 0 1 empty empty empty 0 -8 0 10 #e4e4e4 #5a5a5a #5a5a5a 128 256;
#X obj 2775 313 nbx 4 18 -1e+37 1e+37 0 1 empty empty empty 0 -8 0 10 #e4e4e4 #5a5a5a #5a5a5a 6.5 256;
#X obj 2826 313 nbx 4 18 -1e+37 1e+37 0 1 empty empty empty 0 -8 0 10 #e4e4e4 #5a5a5a #5a5a5a 48 256;
#X text 2644 78 NIGHTMARE SYNTH2, f 18;
#X msg 2355 829 open nightmaresynth1edit.wav;
#X obj 3067 75 midiin;
#X obj 3105 124 note.in;
#X obj 3109 185 mtof;
#X obj 2893 149 nbx 4 18 -1e+37 1e+37 0 1 empty empty empty 0 -8 0 10 #e4e4e4 #5a5a5a #5a5a5a 0 256;
#X obj 2944 149 nbx 4 18 0 4000 0 1 empty empty empty 0 -8 0 10 #e4e4e4 #5a5a5a #5a5a5a 3519 256;
#X obj 2914 249 / 1.02;
#X obj 2914 314 cycle~;
#X obj 2973 314 cycle~;
#X obj 2936 410 *~ 0;
#X obj 3109 322 cycle~;
#X obj 3122 422 s2f~;
#X obj 3232 393 adsr~;
#X obj 3194 289 / 127;
#X obj 3223 237 nbx 4 18 -1e+37 1e+37 0 0 empty empty empty 0 -8 0 10 #e4e4e4 #5a5a5a #5a5a5a 0 256;
#X obj 3261 336 nbx 4 18 0 1000 0 1 empty empty empty 0 -8 0 10 #e4e4e4 #5a5a5a #5a5a5a 705 256;
#X obj 3309 336 nbx 4 18 -1e+37 1e+37 0 1 empty empty empty 0 -8 0 10 #e4e4e4 #5a5a5a #5a5a5a 809 256;
#X obj 3360 336 nbx 4 18 -1e+37 1e+37 0 1 empty empty empty 0 -8 0 10 #e4e4e4 #5a5a5a #5a5a5a 82 256;
#X obj 3411 336 nbx 4 18 -1e+37 1e+37 0 1 empty empty empty 0 -8 0 10 #e4e4e4 #5a5a5a #5a5a5a 719 256;
#X obj 2965 249 / 0.7;
#X text 3229 105 NIGHTMARE SYNTH3, f 19;
#X obj 2380 226 / 0.7;
#X msg 108 1837 open nightmaresynth4.wav, f 26;
#X msg 2600 858 open nightmaresynth2edit.wav, f 29;
#X msg 2848 891 open nightmaresynth3edit.wav, f 29;
#X obj 3217 901 readsf~;
#X msg 3159 872 1;
#X obj 3154 810 t b b;
#X obj 3159 781 bng 15 250 50 0 empty empty empty 17 7 0 10 #fcfcfc #000000 #000000;
#X obj 3272 822 bng 15 250 50 0 empty empty empty 17 7 0 10 #fcfcfc #000000 #000000;
#X text 3145 756 play;
#X obj 3321 883 spigot;
#X obj 3340 845 tgl 15 1 empty empty empty 17 7 0 10 #fcfcfc #000000 #000000 0 1;
#X text 3360 844 loop;
#X obj 1453 722 readsf~;
#X msg 1475 593 1;
#X obj 1475 568 t b b;
#X obj 1475 549 bng 15 250 50 0 empty empty empty 17 7 0 10 #fcfcfc #000000 #000000;
#X obj 1519 666 bng 15 250 50 0 empty empty empty 17 7 0 10 #fcfcfc #000000 #000000;
#X text 1498 546 play;
#X obj 1539 701 spigot;
#X obj 1558 663 tgl 15 1 empty empty empty 17 7 0 10 #fcfcfc #000000 #000000 0 1;
#X text 1578 662 loop;
#X obj 1294 979 vsl 17 128 1 900 1 0 empty empty empty 0 -9 0 10 #191919 #ffffff #ffffff 0 1;
#X obj 1328 1113 nbx 7 22 -1e+37 1e+37 0 0 empty empty empty 0 -8 0 10 #191919 #ffffff #ffffff 0 256;
#X obj 1321 979 vsl 17 128 400 50 1 0 empty empty empty 0 -9 0 10 #191919 #ffffff #ffffff 0 1;
#X obj 1223 1116 nbx 5 19 -1e+37 1e+37 0 0 empty empty empty 0 -8 0 10 #191919 #ffffff #ffffff 0 256;
#X obj 1355 1244 lop~ 500;
#X obj 1351 1176 lop~ 400;
#X obj 1355 1209 lop~ 500;
#X obj 1257 1244 hip~ 4000;
#X obj 1257 1209 hip~ 3000;
#X obj 1254 1176 hip~ 1500, f 10;
#X obj 792 1512 ctlin;
#X obj 735 1549 nbx 4 18 -1e+37 1e+37 0 0 empty empty empty 0 -8 0 10 #191919 #ffffff #ffffff 0 256;
#X obj 875 1562 nbx 4 18 -1e+37 1e+37 0 0 empty empty empty 0 -8 0 10 #191919 #ffffff #ffffff 0 256;
#X obj 909 1532 nbx 4 18 -1e+37 1e+37 0 0 empty empty empty 0 -8 0 10 #191919 #ffffff #ffffff 0 256;
#X msg 885 1678 1, f 5;
#X msg 933 1694 0, f 5;
#X obj 876 1726 nbx 4 18 -1e+37 1e+37 0 0 empty empty empty 0 -8 0 10 #191919 #ffffff #ffffff 0 256;
#X obj 769 1630 nbx 4 18 -1e+37 1e+37 0 0 empty empty empty 0 -8 0 10 #191919 #ffffff #ffffff 0 256;
#X obj 734 1692 *;
#X obj 807 1756 nbx 4 18 -1e+37 1e+37 0 0 empty empty empty 0 -8 0 10 #191919 #ffffff #ffffff 0 256;
#X obj 386 1511 ctlin;
#X obj 375 1546 nbx 4 18 -1e+37 1e+37 0 0 empty empty empty 0 -8 0 10 #191919 #ffffff #ffffff 0 256;
#X obj 491 1549 nbx 4 18 -1e+37 1e+37 0 0 empty empty empty 0 -8 0 10 #191919 #ffffff #ffffff 0 256;
#X msg 492 1664 1, f 5;
#X msg 539 1659 0, f 5;
#X obj 508 1701 nbx 4 18 -1e+37 1e+37 0 0 empty empty empty 0 -8 0 10 #191919 #ffffff #ffffff 0 256;
#X obj 381 1576 *;
#X obj 316 1594 nbx 4 18 -1e+37 1e+37 0 0 empty empty empty 0 -8 0 10 #191919 #ffffff #ffffff 0 256;
#X obj 359 1755 nbx 8 19 -1e+37 1e+37 0 0 empty empty empty 0 -8 0 10 #191919 #ffffff #ffffff 0 256;
#X obj 369 1674 *;
#X obj 734 1734 +;
#X obj 734 1770 nbx 4 18 -1e+37 1e+37 0 0 empty empty empty 0 -8 0 10 #191919 #ffffff #ffffff 0 256;
#X obj 735 1588 *;
#X obj 735 1650 sel 0;
#X obj 817 1660 tgl 25 0 empty empty empty 17 7 0 10 #191919 #ffffff #ffffff 0 1;
#X obj 369 1632 sel 0;
#X obj 429 1628 tgl 25 0 empty empty empty 17 7 0 10 #191919 #ffffff #ffffff 0 1;
#X obj 491 1589 sel 48 49 50 51 52 53 54 55;
#X obj 916 1590 sel 48 49 50 51 52 53 54 55;
#X obj 369 1717 +;
#X msg 429 1681 0.01, f 7;
#X obj 429 1717 nbx 4 18 -1e+37 1e+37 0 0 empty empty empty 0 -8 0 10 #191919 #ffffff #ffffff 0 256;
#X msg 807 1724 10, f 5;
#X text 427 958 TAPE DELAY 1, f 13;
#X text 1227 978 HIPASS, f 8;
#X text 1355 978 LOWPASS, f 10;
#X text 386 1477 DELAY 1 DRY/WET MIDI CONTROL;
#X text 792 1485 DELAY 1 TIME MIDI CONTROL;
#X obj 1170 1501 ctlin;
#X obj 1159 1536 nbx 4 18 -1e+37 1e+37 0 0 empty empty empty 0 -8 0 10 #191919 #ffffff #ffffff 0 256;
#X obj 1275 1539 nbx 4 18 -1e+37 1e+37 0 0 empty empty empty 0 -8 0 10 #191919 #ffffff #ffffff 0 256;
#X msg 1276 1654 1, f 5;
#X msg 1323 1649 0, f 5;
#X obj 1292 1691 nbx 4 18 -1e+37 1e+37 0 0 empty empty empty 0 -8 0 10 #191919 #ffffff #ffffff 0 256;
#X obj 1165 1566 *;
#X obj 1143 1745 nbx 8 19 -1e+37 1e+37 0 0 empty empty empty 0 -8 0 10 #191919 #ffffff #ffffff 0 256;
#X obj 1153 1664 *;
#X obj 1153 1622 sel 0;
#X obj 1213 1618 tgl 25 0 empty empty empty 17 7 0 10 #191919 #ffffff #ffffff 0 1;
#X obj 1275 1579 sel 48 49 50 51 52 53 54 55;
#X obj 1153 1707 +;
#X obj 1213 1707 nbx 4 18 -1e+37 1e+37 0 0 empty empty empty 0 -8 0 10 #191919 #ffffff #ffffff 0 256;
#X obj 1562 1497 ctlin;
#X obj 1551 1532 nbx 4 18 -1e+37 1e+37 0 0 empty empty empty 0 -8 0 10 #191919 #ffffff #ffffff 0 256;
#X obj 1667 1535 nbx 4 18 -1e+37 1e+37 0 0 empty empty empty 0 -8 0 10 #191919 #ffffff #ffffff 0 256;
#X msg 1668 1650 1, f 5;
#X msg 1715 1645 0, f 5;
#X obj 1684 1687 nbx 4 18 -1e+37 1e+37 0 0 empty empty empty 0 -8 0 10 #191919 #ffffff #ffffff 0 256;
#X obj 1557 1562 *;
#X obj 1535 1741 nbx 8 19 -1e+37 1e+37 0 0 empty empty empty 0 -8 0 10 #191919 #ffffff #ffffff 0 256;
#X obj 1545 1660 *;
#X obj 1545 1618 sel 0;
#X obj 1605 1614 tgl 25 0 empty empty empty 17 7 0 10 #191919 #ffffff #ffffff 0 1;
#X obj 1667 1575 sel 48 49 50 51 52 53 54 55;
#X obj 1545 1703 +;
#X obj 1605 1703 nbx 4 18 -1e+37 1e+37 0 0 empty empty empty 0 -8 0 10 #191919 #ffffff #ffffff 0 256;
#X msg 1213 1682 7, f 5;
#X msg 1605 1678 3, f 5;
#X text 1170 1475 HIPASS FILTER 1 MIDI CONTROL, f 26;
#X text 1562 1475 LOPASS FILTER 1 MIDI CONTROL, f 27;
#X obj 2110 1294 line~;
#X msg 2110 1258 \$1 100, f 8;
#X obj 2110 1229 nbx 4 18 100 1000 0 1 empty empty delay\ time 0 -8 0 10 #191919 #ffffff #ffffff 969 256;
#X obj 2110 1368 lop~ 8000;
#X obj 2111 1404 lop~ 8000;
#X obj 2111 1442 hip~ 300;
#X obj 2111 1509 *~;
#X obj 2187 1485 nbx 4 18 0 0.98 0 1 empty empty feedback 0 -8 0 10 #191919 #ffffff #ffffff 0.5 256;
#X obj 2035 1229 nbx 4 18 0 1 0 1 empty empty wet\ signal 0 -8 0 10 #191919 #ffffff #ffffff 1 256;
#X obj 2891 1241 vsl 17 128 1 10000 0 0 empty empty empty 0 -9 0 10 #191919 #ffffff #ffffff 0 1;
#X obj 2952 1401 nbx 7 22 -1e+37 1e+37 0 0 empty empty empty 0 -8 0 10 #191919 #ffffff #ffffff 0 256;
#X obj 2918 1241 vsl 17 128 400 50 0 0 empty empty empty 0 -9 0 10 #191919 #ffffff #ffffff 0 1;
#X obj 2878 1404 nbx 5 19 -1e+37 1e+37 0 0 empty empty empty 0 -8 0 10 #191919 #ffffff #ffffff 0 256;
#X obj 2952 1506 lop~ 500;
#X obj 2948 1438 lop~ 400;
#X obj 2952 1471 lop~ 500;
#X obj 2854 1506 hip~ 4000;
#X obj 2854 1471 hip~ 3000;
#X obj 2851 1438 hip~ 1500, f 10;
#X obj 2468 1682 ctlin;
#X obj 2411 1719 nbx 4 18 -1e+37 1e+37 0 0 empty empty empty 0 -8 0 10 #191919 #ffffff #ffffff 0 256;
#X obj 2551 1732 nbx 4 18 -1e+37 1e+37 0 0 empty empty empty 0 -8 0 10 #191919 #ffffff #ffffff 0 256;
#X obj 2585 1702 nbx 4 18 -1e+37 1e+37 0 0 empty empty empty 0 -8 0 10 #191919 #ffffff #ffffff 0 256;
#X msg 2561 1855 1, f 5;
#X msg 2609 1864 0, f 5;
#X obj 2552 1896 nbx 4 18 -1e+37 1e+37 0 0 empty empty empty 0 -8 0 10 #191919 #ffffff #ffffff 0 256;
#X obj 2445 1800 nbx 4 18 -1e+37 1e+37 0 0 empty empty empty 0 -8 0 10 #191919 #ffffff #ffffff 0 256;
#X obj 2410 1862 *;
#X obj 2483 1926 nbx 4 18 -1e+37 1e+37 0 0 empty empty empty 0 -8 0 10 #191919 #ffffff #ffffff 0 256;
#X obj 2062 1681 ctlin;
#X obj 2051 1716 nbx 4 18 -1e+37 1e+37 0 0 empty empty empty 0 -8 0 10 #191919 #ffffff #ffffff 0 256;
#X obj 2167 1719 nbx 4 18 -1e+37 1e+37 0 0 empty empty empty 0 -8 0 10 #191919 #ffffff #ffffff 0 256;
#X msg 2168 1834 1, f 5;
#X msg 2215 1829 0, f 5;
#X obj 2184 1871 nbx 4 18 -1e+37 1e+37 0 0 empty empty empty 0 -8 0 10 #191919 #ffffff #ffffff 0 256;
#X obj 2057 1746 *;
#X obj 1992 1764 nbx 4 18 -1e+37 1e+37 0 0 empty empty empty 0 -8 0 10 #191919 #ffffff #ffffff 0 256;
#X obj 2035 1925 nbx 8 19 -1e+37 1e+37 0 0 empty empty empty 0 -8 0 10 #191919 #ffffff #ffffff 0 256;
#X obj 2045 1844 *;
#X obj 2410 1904 +;
#X obj 2410 1940 nbx 4 18 -1e+37 1e+37 0 0 empty empty empty 0 -8 0 10 #191919 #ffffff #ffffff 0 256;
#X obj 2411 1758 *;
#X obj 2411 1820 sel 0;
#X obj 2493 1830 tgl 25 0 empty empty empty 17 7 0 10 #191919 #ffffff #ffffff 0 1;
#X obj 2045 1802 sel 0;
#X obj 2105 1798 tgl 25 0 empty empty empty 17 7 0 10 #191919 #ffffff #ffffff 0 1;
#X obj 2167 1759 sel 48 49 50 51 52 53 54 55;
#X obj 2592 1760 sel 48 49 50 51 52 53 54 55;
#X obj 2045 1887 +;
#X msg 2105 1851 0.01, f 7;
#X obj 2105 1887 nbx 4 18 -1e+37 1e+37 0 0 empty empty empty 0 -8 0 10 #191919 #ffffff #ffffff 0 256;
#X msg 2483 1881 10, f 5;
#X text 2824 1240 HIPASS, f 8;
#X text 2952 1240 LOWPASS, f 10;
#X obj 2846 1671 ctlin;
#X obj 2835 1706 nbx 4 18 -1e+37 1e+37 0 0 empty empty empty 0 -8 0 10 #191919 #ffffff #ffffff 0 256;
#X obj 2951 1709 nbx 4 18 -1e+37 1e+37 0 0 empty empty empty 0 -8 0 10 #191919 #ffffff #ffffff 0 256;
#X msg 2964 1839 1, f 5;
#X msg 3011 1834 0, f 5;
#X obj 2980 1876 nbx 4 18 -1e+37 1e+37 0 0 empty empty empty 0 -8 0 10 #191919 #ffffff #ffffff 0 256;
#X obj 2841 1736 *;
#X obj 2819 1915 nbx 8 19 -1e+37 1e+37 0 0 empty empty empty 0 -8 0 10 #191919 #ffffff #ffffff 0 256;
#X obj 2829 1834 *;
#X obj 2829 1792 sel 0;
#X obj 2889 1788 tgl 25 0 empty empty empty 17 7 0 10 #191919 #ffffff #ffffff 0 1;
#X obj 2951 1749 sel 48 49 50 51 52 53 54 55;
#X obj 2829 1877 +;
#X obj 2889 1877 nbx 4 18 -1e+37 1e+37 0 0 empty empty empty 0 -8 0 10 #191919 #ffffff #ffffff 0 256;
#X obj 3238 1667 ctlin;
#X obj 3227 1702 nbx 4 18 -1e+37 1e+37 0 0 empty empty empty 0 -8 0 10 #191919 #ffffff #ffffff 0 256;
#X obj 3343 1705 nbx 4 18 -1e+37 1e+37 0 0 empty empty empty 0 -8 0 10 #191919 #ffffff #ffffff 0 256;
#X msg 3359 1848 1, f 5;
#X msg 3406 1843 0, f 5;
#X obj 3375 1885 nbx 4 18 -1e+37 1e+37 0 0 empty empty empty 0 -8 0 10 #191919 #ffffff #ffffff 0 256;
#X obj 3233 1732 *;
#X obj 3211 1911 nbx 8 19 -1e+37 1e+37 0 0 empty empty empty 0 -8 0 10 #191919 #ffffff #ffffff 0 256;
#X obj 3221 1830 *;
#X obj 3221 1788 sel 0;
#X obj 3281 1784 tgl 25 0 empty empty empty 17 7 0 10 #191919 #ffffff #ffffff 0 1;
#X obj 3343 1745 sel 48 49 50 51 52 53 54 55;
#X obj 3221 1873 +;
#X obj 3281 1873 nbx 4 18 -1e+37 1e+37 0 0 empty empty empty 0 -8 0 10 #191919 #ffffff #ffffff 0 256;
#X msg 3281 1848 3, f 5;
#X obj 2063 1086 delwrite~ tapedelay2 2000;
#X obj 2070 1005 r~ feedback2;
#X obj 2111 1558 s~ feedback2;
#X text 2103 1132 TAPE DELAY 2, f 13;
#X text 2062 1651 DELAY 2 DRY/WET MIDI CONTROL;
#X text 2468 1653 DELAY 2 TIME MIDI CONTROL;
#X text 2869 1647 HIPASS FILTER 2 MIDI CONTROL, f 27;
#X text 3238 1649 LOPASS FILTER 2 MIDI CONTROL, f 27;
#X obj 2110 1329 delread4~ tapedelay2 2000;
#X msg 3287 822 open AndrewBrownRev3.wav, f 27;
#X text 3163 719 ANDREW BROWN REV, f 20;
#X obj 2970 1069 *~;
#X obj 3452 1119 bng 19 250 50 0 empty empty empty 17 7 0 10 #dfdfdf #000000 #000000;
#X obj 3455 1262 nbx 4 18 -1e+37 1e+37 0 0 empty empty empty 0 -8 0 10 #191919 #ffffff #ffffff 0 256;
#X text 3416 1099 Random hipass, f 14;
#X obj 3582 1119 bng 19 250 50 0 empty empty empty 17 7 0 10 #dfdfdf #000000 #000000;
#X obj 3585 1262 nbx 4 18 -1e+37 1e+37 0 0 empty empty empty 0 -8 0 10 #191919 #ffffff #ffffff 0 256;
#X text 3546 1097 Random lopass, f 14;
#X obj 3842 1119 bng 19 250 50 0 empty empty empty 17 7 0 10 #dfdfdf #000000 #000000;
#X obj 3845 1262 nbx 4 18 -1e+37 1e+37 0 0 empty empty empty 0 -8 0 10 #191919 #ffffff #ffffff 0 256;
#X text 3806 1093 Random delay_time;
#X obj 3694 1117 bng 19 250 50 0 empty empty empty 17 7 0 10 #dfdfdf #000000 #000000;
#X obj 3697 1285 nbx 4 18 -1e+37 1e+37 0 0 empty empty empty 0 -8 0 10 #191919 #ffffff #ffffff 0 256;
#X obj 3695 1248 * 0.1;
#X text 3658 1093 Random delay_wet, f 17;
#X text 4 1962 Random volume, f 15;
#X obj 90 2256 bng 19 250 50 0 empty empty empty 17 7 0 10 #dfdfdf #000000 #000000;
#X obj 93 2399 nbx 4 18 -1e+37 1e+37 0 0 empty empty empty 0 -8 0 10 #191919 #ffffff #ffffff 0 256;
#X text 54 2236 Random hipass, f 14;
#X obj 106 2485 bng 19 250 50 0 empty empty empty 17 7 0 10 #dfdfdf #000000 #000000;
#X obj 109 2628 nbx 4 18 -1e+37 1e+37 0 0 empty empty empty 0 -8 0 10 #191919 #ffffff #ffffff 0 256;
#X text 70 2463 Random lopass, f 14;
#X obj 106 3028 bng 19 250 50 0 empty empty empty 17 7 0 10 #dfdfdf #000000 #000000;
#X obj 109 3171 nbx 4 18 -1e+37 1e+37 0 0 empty empty empty 0 -8 0 10 #191919 #ffffff #ffffff 0 256;
#X text 70 3002 Random delay_time;
#X obj 86 2741 bng 19 250 50 0 empty empty empty 17 7 0 10 #dfdfdf #000000 #000000;
#X obj 89 2909 nbx 4 18 -1e+37 1e+37 0 0 empty empty empty 0 -8 0 10 #191919 #ffffff #ffffff 0 256;
#X obj 87 2872 * 0.1;
#X text 50 2717 Random delay_wet, f 17;
#X obj 780 1299 *~;
#X obj 41 1990 bng 19 250 50 0 empty empty empty 17 7 0 10 #dfdfdf #000000 #000000;
#X obj 44 2158 nbx 4 18 -1e+37 1e+37 0 0 empty empty empty 0 -8 0 10 #191919 #ffffff #ffffff 0 256;
#X obj 42 2121 * 0.1;
#X text 36 2702 comment, f 4;
#X obj 90 2353 random 900 800;
#X obj 106 3125 random 50 10;
#X obj 106 2582 random 20 3;
#X obj 86 2838 random 2 1;
#X obj 41 2087 random 5 1;
#X text 3128 1093 Random volume, f 15;
#X obj 3237 1094 bng 19 250 50 0 empty empty empty 17 7 0 10 #dfdfdf #000000 #000000;
#X obj 3234 1235 nbx 4 18 -1e+37 1e+37 0 0 empty empty empty 0 -8 0 10 #191919 #ffffff #ffffff 0 256;
#X obj 3234 1208 * 0.1;
#X obj 3233 1174 random 20 15;
#X obj 3694 1214 random 15 10;
#X obj 3842 1216 random 1270 500;
#X obj 3452 1216 random 380 1;
#X obj 3572 1214 random 380 330;
#X msg 2889 1847 200, f 6;
#X obj 3427 452 tgl 139 0 empty empty empty 0 -11 0 12 #fcfcfc #000000 #000000 0 1;
#X obj 209 1151 *~;
#X obj 228 1197 *~;
#X obj 3356 3283;
#X obj 3356 3283;
#X obj 3356 3312;
#X obj 2072 1991 >= 0.9;
#X obj 3226 1984 >= 280;
#X obj 2813 1989 <= 9600;
#X obj 2421 1990 >= 850;
#X obj 2617 2369 bng 50 250 50 0 empty empty empty 17 7 0 10 #191919 #ffffff #ffffff;
#X obj 2177 2028 nbx 4 18 -1e+37 1e+37 0 0 empty empty empty 0 -8 0 10 #191919 #ffffff #ffffff 0 256;
#X obj 2478 2035 nbx 4 18 -1e+37 1e+37 0 0 empty empty empty 0 -8 0 10 #191919 #ffffff #ffffff 0 256;
#X obj 2910 2032 nbx 4 18 -1e+37 1e+37 0 0 empty empty empty 0 -8 0 10 #191919 #ffffff #ffffff 0 256;
#X obj 3283 2033 nbx 4 18 -1e+37 1e+37 0 0 empty empty empty 0 -8 0 10 #191919 #ffffff #ffffff 0 256;
#X obj 2382 2202 +;
#X obj 2620 2269 +;
#X obj 2704 2284 nbx 4 18 -1e+37 1e+37 0 0 empty empty empty 0 -8 0 10 #191919 #ffffff #ffffff 0 256;
#X obj 2615 2325 sel 4;
#X obj 845 1856 >= 850;
#X obj 491 1854 >= 0.6;
#X obj 1258 1872 <= 175;
#X obj 1611 1869 >= 195;
#X obj 2392 2270 nbx 4 18 -1e+37 1e+37 0 0 empty empty empty 0 -8 0 10 #191919 #ffffff #ffffff 0 256;
#X obj 2316 2170 nbx 4 18 -1e+37 1e+37 0 0 empty empty empty 0 -8 0 10 #191919 #ffffff #ffffff 0 256;
#X obj 2387 2133 t b f;
#X obj 3037 2199 +;
#X obj 2970 2161 nbx 4 18 -1e+37 1e+37 0 0 empty empty empty 0 -8 0 10 #191919 #ffffff #ffffff 0 256;
#X obj 3127 2150 t b f;
#X obj 3069 2259 nbx 4 18 -1e+37 1e+37 0 0 empty empty empty 0 -8 0 10 #191919 #ffffff #ffffff 0 256;
#X obj 2795 2101 t b f;
#X obj 942 2225 bng 50 250 50 0 empty empty empty 17 7 0 10 #191919 #ffffff #ffffff;
#X obj 837 2055 +;
#X obj 1024 2091 +;
#X obj 1061 2163 nbx 4 18 -1e+37 1e+37 0 0 empty empty empty 0 -8 0 10 #191919 #ffffff #ffffff 0 256;
#X obj 940 2181 sel 4;
#X obj 847 2123 nbx 4 18 -1e+37 1e+37 0 0 empty empty empty 0 -8 0 10 #191919 #ffffff #ffffff 0 256;
#X obj 771 2023 nbx 4 18 -1e+37 1e+37 0 0 empty empty empty 0 -8 0 10 #191919 #ffffff #ffffff 0 256;
#X obj 842 1986 t b f;
#X obj 1252 2017 +;
#X obj 1185 1979 nbx 4 18 -1e+37 1e+37 0 0 empty empty empty 0 -8 0 10 #191919 #ffffff #ffffff 0 256;
#X obj 1342 1968 t b f;
#X obj 1284 2077 nbx 4 18 -1e+37 1e+37 0 0 empty empty empty 0 -8 0 10 #191919 #ffffff #ffffff 0 256;
#X obj 1127 2013 t b f;
#X obj 1119 1351 pan2~;
#X obj 2621 1450 pan2~;
#X text 3178 1583 NIGHTMARE, f 24;
#X text 1831 1516 DREAM, f 8;
#X obj 967 1329 vline~;
#X obj 992 1421 nbx 4 18 -1e+37 1e+37 0 0 empty empty empty 0 -8 0 10 #191919 #ffffff #ffffff 0 256;
#X obj 943 1425 s2f~;
#X msg 955 1282 1 2000 0, f 10;
#X msg 1048 1296 0 2000 0, f 10;
#X obj 2497 1404 vline~;
#X obj 2522 1496 nbx 4 18 -1e+37 1e+37 0 0 empty empty empty 0 -8 0 10 #191919 #ffffff #ffffff 0 256;
#X obj 2473 1500 s2f~;
#X msg 2395 1329 0 2000 0, f 10;
#X msg 2527 1339 -1 2000 0, f 11;
#X msg 1499 645 open AndrewBrownNonRev5.wav, f 31;
#X text 3493 126 These synth structures are not actively used in the patch \, but only show how all sounds are made using pure data. The sounds are recorded and looped \, and the length of the files are adjusted in ableton to make them perfectly loop., f 60;
#X text 1540 585 ANDREW BROWN NON REVERSED, f 29;
#X text 3600 453 This toggle button toggles the smaller loop buttons for every sound file \, so looping the sounds. The Andrew Brown files are not connected to the toggle button \, because those are only toggled by behaviour., f 42;
#X text 3433 702 these four sounds are the eerie part of the project. The andrew brown sound file is basically a snippet from one of his videos \, but the sound is reversed and pitched up and down., f 46;
#X text 3435 761 You can play all the files individually \, by pressing the play bang., f 50;
#X text 799 2300 This is the dreamscape generator. The four structures above \, where the knobs are selected \, are the effect controls. The lower part \, where the conditions are set (e.g. <= 175 etc) is the theshold from the four knobs of what we consider is the 'correct' answer for when it sounds like a dream and when it does not., f 61;
#X text 3585 1650 These are the filter controls for the nightmare sounds., f 43;
#X text 3583 1688 The structure works as follows: The ctlin object is used for connecting with the midi controller. The sel object takes one of the 8 knobs and produces either a 1 or a 0 if it's one \, it takes the value of the knob (1-127) and multiplies it by 1 if it's zero \, it selects zero and toggles a knob (instead of multiplying it by zero \, because that would prevent us from using knobs individually aasit would keep resetting other knobs to zero)., f 41;
#X text 3389 1983 <----- thresholds of the knobs, f 25;
#X text 2738 2324 <---- only if the total number is 4 (so if all thresholds are met) the dreamscape will be activated, f 74;
#X text 3486 1346 ^ This is the behaviour that is activated every ~15 seconds. They will randomly generate a value for the dreamscape sounds that is generally on the softer end - so it will automatically filter out the dream to some etent. This makes the user feel like they should 'fight back' to regain their dream., f 56;
#X connect 1 0 2 0;
#X connect 2 0 3 0;
#X connect 2 1 16 0;
#X connect 3 0 17 0;
#X connect 3 0 6 0;
#X connect 3 0 7 0;
#X connect 3 0 11 0;
#X connect 4 0 6 1;
#X connect 5 0 7 0;
#X connect 6 0 8 0;
#X connect 7 0 9 0;
#X connect 8 0 10 0;
#X connect 9 0 10 0;
#X connect 12 0 10 1;
#X connect 13 0 14 0;
#X connect 13 0 14 1;
#X connect 13 0 24 0;
#X connect 13 0 37 0;
#X connect 13 0 37 1;
#X connect 13 0 368 0;
#X connect 15 0 12 0;
#X connect 16 0 15 0;
#X connect 18 0 15 1;
#X connect 19 0 15 2;
#X connect 20 0 15 3;
#X connect 21 0 15 4;
#X connect 22 0 37 0;
#X connect 23 0 37 0;
#X connect 25 0 36 0;
#X connect 26 0 25 0;
#X connect 27 0 26 0;
#X connect 28 0 29 0;
#X connect 29 0 30 0;
#X connect 30 0 33 0;
#X connect 32 0 24 0;
#X connect 33 0 31 0;
#X connect 34 0 33 1;
#X connect 35 0 428 1;
#X connect 36 0 28 0;
#X connect 36 0 428 0;
#X connect 38 0 214 0;
#X connect 38 0 210 0;
#X connect 38 0 407 0;
#X connect 38 1 42 0;
#X connect 38 1 408 0;
#X connect 38 1 394 0;
#X connect 38 1 397 0;
#X connect 38 1 403 0;
#X connect 38 1 400 0;
#X connect 39 0 38 0;
#X connect 40 0 39 0;
#X connect 40 1 47 0;
#X connect 41 0 40 0;
#X connect 42 0 44 0;
#X connect 44 0 41 0;
#X connect 45 0 44 1;
#X connect 47 0 38 0;
#X connect 48 0 210 0;
#X connect 48 0 214 0;
#X connect 48 0 407 0;
#X connect 48 1 52 0;
#X connect 48 1 380 0;
#X connect 48 1 383 0;
#X connect 48 1 389 0;
#X connect 48 1 386 0;
#X connect 48 1 418 0;
#X connect 49 0 48 0;
#X connect 50 0 49 0;
#X connect 50 1 57 0;
#X connect 51 0 50 0;
#X connect 52 0 54 0;
#X connect 54 0 51 0;
#X connect 55 0 54 1;
#X connect 57 0 48 0;
#X connect 58 0 41 0;
#X connect 58 0 51 0;
#X connect 58 0 84 0;
#X connect 60 0 61 0;
#X connect 61 0 62 0;
#X connect 61 1 73 0;
#X connect 62 0 74 0;
#X connect 62 0 65 0;
#X connect 62 0 66 0;
#X connect 62 0 70 0;
#X connect 63 0 65 1;
#X connect 64 0 66 0;
#X connect 65 0 67 0;
#X connect 66 0 68 0;
#X connect 67 0 69 0;
#X connect 68 0 69 0;
#X connect 70 0 69 0;
#X connect 71 0 69 1;
#X connect 72 0 71 0;
#X connect 73 0 72 0;
#X connect 75 0 72 1;
#X connect 76 0 72 2;
#X connect 77 0 72 3;
#X connect 78 0 72 4;
#X connect 81 0 210 0;
#X connect 81 0 214 0;
#X connect 81 0 407 0;
#X connect 81 1 85 0;
#X connect 82 0 81 0;
#X connect 83 0 82 0;
#X connect 83 1 90 0;
#X connect 84 0 83 0;
#X connect 85 0 87 0;
#X connect 87 0 84 0;
#X connect 88 0 87 1;
#X connect 90 0 81 0;
#X connect 92 0 93 0;
#X connect 93 0 94 0;
#X connect 93 1 104 0;
#X connect 94 0 105 0;
#X connect 94 0 101 0;
#X connect 94 0 97 0;
#X connect 94 0 110 0;
#X connect 95 0 97 1;
#X connect 96 0 110 0;
#X connect 97 0 98 0;
#X connect 98 0 100 0;
#X connect 99 0 100 0;
#X connect 101 0 100 0;
#X connect 102 0 100 1;
#X connect 103 0 102 0;
#X connect 104 0 103 0;
#X connect 106 0 103 1;
#X connect 107 0 103 2;
#X connect 108 0 103 3;
#X connect 109 0 103 4;
#X connect 110 0 99 0;
#X connect 112 0 303 0;
#X connect 112 0 299 0;
#X connect 112 0 379 0;
#X connect 112 1 116 0;
#X connect 113 0 112 0;
#X connect 114 0 113 0;
#X connect 114 1 162 0;
#X connect 115 0 114 0;
#X connect 116 0 118 0;
#X connect 118 0 115 0;
#X connect 119 0 118 1;
#X connect 121 0 303 0;
#X connect 121 0 299 0;
#X connect 121 0 379 0;
#X connect 121 1 125 0;
#X connect 122 0 121 0;
#X connect 123 0 122 0;
#X connect 123 1 185 0;
#X connect 124 0 123 0;
#X connect 125 0 127 0;
#X connect 127 0 124 0;
#X connect 128 0 127 1;
#X connect 130 0 115 0;
#X connect 130 0 124 0;
#X connect 130 0 134 0;
#X connect 131 0 303 0;
#X connect 131 0 299 0;
#X connect 131 0 379 0;
#X connect 131 1 135 0;
#X connect 132 0 131 0;
#X connect 133 0 132 0;
#X connect 133 1 186 0;
#X connect 134 0 133 0;
#X connect 135 0 137 0;
#X connect 137 0 134 0;
#X connect 138 0 137 1;
#X connect 141 0 58 0;
#X connect 141 0 130 0;
#X connect 143 0 144 0;
#X connect 144 0 145 0;
#X connect 144 1 155 0;
#X connect 145 0 156 0;
#X connect 145 0 152 0;
#X connect 145 0 148 0;
#X connect 145 0 183 0;
#X connect 146 0 148 1;
#X connect 147 0 183 0;
#X connect 148 0 149 0;
#X connect 149 0 151 0;
#X connect 150 0 151 0;
#X connect 152 0 151 0;
#X connect 153 0 151 1;
#X connect 154 0 153 0;
#X connect 155 0 154 0;
#X connect 157 0 154 1;
#X connect 158 0 154 2;
#X connect 159 0 154 3;
#X connect 160 0 154 4;
#X connect 162 0 112 0;
#X connect 163 0 164 0;
#X connect 164 0 165 0;
#X connect 164 1 175 0;
#X connect 165 0 176 0;
#X connect 165 0 172 0;
#X connect 165 0 168 0;
#X connect 165 0 181 0;
#X connect 166 0 168 1;
#X connect 167 0 181 0;
#X connect 168 0 169 0;
#X connect 169 0 171 0;
#X connect 170 0 171 0;
#X connect 172 0 171 0;
#X connect 173 0 171 1;
#X connect 174 0 173 0;
#X connect 175 0 174 0;
#X connect 177 0 174 1;
#X connect 178 0 174 2;
#X connect 179 0 174 3;
#X connect 180 0 174 4;
#X connect 181 0 170 0;
#X connect 183 0 150 0;
#X connect 184 0 37 0;
#X connect 185 0 121 0;
#X connect 186 0 131 0;
#X connect 187 0 379 0;
#X connect 187 1 191 0;
#X connect 188 0 187 0;
#X connect 189 0 188 0;
#X connect 189 1 377 0;
#X connect 190 0 189 0;
#X connect 191 0 193 0;
#X connect 193 0 190 0;
#X connect 194 0 193 1;
#X connect 196 0 214 0;
#X connect 196 0 210 0;
#X connect 196 0 407 0;
#X connect 196 1 200 0;
#X connect 197 0 196 0;
#X connect 198 0 197 0;
#X connect 198 1 485 0;
#X connect 199 0 198 0;
#X connect 200 0 202 0;
#X connect 202 0 199 0;
#X connect 203 0 202 1;
#X connect 205 0 208 0;
#X connect 206 0 209 1;
#X connect 206 0 210 1;
#X connect 206 0 211 1;
#X connect 207 0 206 0;
#X connect 208 0 212 1;
#X connect 208 0 213 1;
#X connect 208 0 214 1;
#X connect 209 0 471 0;
#X connect 210 0 211 0;
#X connect 211 0 209 0;
#X connect 212 0 471 0;
#X connect 213 0 212 0;
#X connect 214 0 213 0;
#X connect 215 0 216 0;
#X connect 215 1 217 0;
#X connect 215 2 218 0;
#X connect 216 0 237 0;
#X connect 217 0 243 0;
#X connect 219 0 221 0;
#X connect 220 0 221 0;
#X connect 221 0 237 1;
#X connect 223 0 235 0;
#X connect 224 0 223 1;
#X connect 225 0 226 0;
#X connect 225 1 227 0;
#X connect 226 0 231 0;
#X connect 227 0 242 0;
#X connect 228 0 230 0;
#X connect 229 0 230 0;
#X connect 230 0 231 1;
#X connect 231 0 232 0;
#X connect 231 0 240 0;
#X connect 233 0 35 0;
#X connect 233 0 447 0;
#X connect 234 0 244 0;
#X connect 235 0 236 0;
#X connect 236 0 27 0;
#X connect 236 0 446 0;
#X connect 237 0 222 0;
#X connect 237 0 238 0;
#X connect 238 0 239 0;
#X connect 238 1 223 0;
#X connect 240 0 241 0;
#X connect 240 1 234 0;
#X connect 242 0 228 0;
#X connect 242 0 245 0;
#X connect 242 1 229 0;
#X connect 242 2 229 0;
#X connect 242 3 229 0;
#X connect 242 4 229 0;
#X connect 242 5 229 0;
#X connect 242 6 229 0;
#X connect 242 7 229 0;
#X connect 243 0 220 0;
#X connect 243 1 219 0;
#X connect 243 1 247 0;
#X connect 243 2 220 0;
#X connect 243 3 220 0;
#X connect 243 4 220 0;
#X connect 243 5 220 0;
#X connect 243 6 220 0;
#X connect 243 7 220 0;
#X connect 244 0 233 0;
#X connect 245 0 246 0;
#X connect 246 0 234 1;
#X connect 247 0 224 0;
#X connect 253 0 254 0;
#X connect 253 1 255 0;
#X connect 254 0 259 0;
#X connect 255 0 264 0;
#X connect 256 0 258 0;
#X connect 257 0 258 0;
#X connect 258 0 259 1;
#X connect 259 0 262 0;
#X connect 260 0 205 0;
#X connect 260 0 448 0;
#X connect 261 0 265 0;
#X connect 262 0 263 0;
#X connect 262 1 261 0;
#X connect 264 0 257 0;
#X connect 264 1 257 0;
#X connect 264 2 281 0;
#X connect 264 2 256 0;
#X connect 264 3 257 0;
#X connect 264 4 257 0;
#X connect 264 5 257 0;
#X connect 264 6 257 0;
#X connect 264 7 257 0;
#X connect 265 0 260 0;
#X connect 266 0 261 1;
#X connect 267 0 268 0;
#X connect 267 1 269 0;
#X connect 268 0 273 0;
#X connect 269 0 278 0;
#X connect 270 0 272 0;
#X connect 271 0 272 0;
#X connect 272 0 273 1;
#X connect 273 0 276 0;
#X connect 274 0 207 0;
#X connect 274 0 449 0;
#X connect 275 0 279 0;
#X connect 276 0 277 0;
#X connect 276 1 275 0;
#X connect 278 0 271 0;
#X connect 278 1 271 0;
#X connect 278 2 271 0;
#X connect 278 3 270 0;
#X connect 278 3 282 0;
#X connect 278 4 271 0;
#X connect 278 5 271 0;
#X connect 278 6 271 0;
#X connect 278 7 271 0;
#X connect 279 0 274 0;
#X connect 280 0 275 1;
#X connect 281 0 266 0;
#X connect 282 0 280 0;
#X connect 285 0 376 0;
#X connect 286 0 285 0;
#X connect 287 0 286 0;
#X connect 288 0 289 0;
#X connect 289 0 290 0;
#X connect 290 0 291 0;
#X connect 291 0 370 0;
#X connect 292 0 291 1;
#X connect 293 0 429 1;
#X connect 294 0 297 0;
#X connect 295 0 298 1;
#X connect 295 0 299 1;
#X connect 295 0 300 1;
#X connect 296 0 295 0;
#X connect 297 0 301 1;
#X connect 297 0 302 1;
#X connect 297 0 303 1;
#X connect 298 0 472 0;
#X connect 299 0 300 0;
#X connect 300 0 298 0;
#X connect 301 0 472 0;
#X connect 302 0 301 0;
#X connect 303 0 302 0;
#X connect 304 0 305 0;
#X connect 304 1 306 0;
#X connect 304 2 307 0;
#X connect 305 0 326 0;
#X connect 306 0 332 0;
#X connect 308 0 310 0;
#X connect 309 0 310 0;
#X connect 310 0 326 1;
#X connect 312 0 324 0;
#X connect 313 0 312 1;
#X connect 314 0 315 0;
#X connect 314 1 316 0;
#X connect 315 0 320 0;
#X connect 316 0 331 0;
#X connect 317 0 319 0;
#X connect 318 0 319 0;
#X connect 319 0 320 1;
#X connect 320 0 321 0;
#X connect 320 0 329 0;
#X connect 322 0 293 0;
#X connect 322 0 433 0;
#X connect 323 0 333 0;
#X connect 324 0 325 0;
#X connect 325 0 287 0;
#X connect 325 0 436 0;
#X connect 326 0 311 0;
#X connect 326 0 327 0;
#X connect 327 0 328 0;
#X connect 327 1 312 0;
#X connect 329 0 330 0;
#X connect 329 1 323 0;
#X connect 331 0 318 0;
#X connect 331 1 318 0;
#X connect 331 2 318 0;
#X connect 331 3 318 0;
#X connect 331 4 317 0;
#X connect 331 4 334 0;
#X connect 331 5 318 0;
#X connect 331 6 318 0;
#X connect 331 7 318 0;
#X connect 332 0 309 0;
#X connect 332 1 309 0;
#X connect 332 2 309 0;
#X connect 332 3 309 0;
#X connect 332 4 309 0;
#X connect 332 5 308 0;
#X connect 332 5 336 0;
#X connect 332 6 309 0;
#X connect 332 7 309 0;
#X connect 333 0 322 0;
#X connect 334 0 335 0;
#X connect 335 0 323 1;
#X connect 336 0 313 0;
#X connect 339 0 340 0;
#X connect 339 1 341 0;
#X connect 340 0 345 0;
#X connect 341 0 350 0;
#X connect 342 0 344 0;
#X connect 343 0 344 0;
#X connect 344 0 345 1;
#X connect 345 0 348 0;
#X connect 346 0 294 0;
#X connect 346 0 435 0;
#X connect 347 0 351 0;
#X connect 348 0 349 0;
#X connect 348 1 347 0;
#X connect 350 0 343 0;
#X connect 350 1 343 0;
#X connect 350 2 343 0;
#X connect 350 3 343 0;
#X connect 350 4 343 0;
#X connect 350 5 343 0;
#X connect 350 6 342 0;
#X connect 350 6 426 0;
#X connect 350 7 343 0;
#X connect 351 0 346 0;
#X connect 352 0 347 1;
#X connect 353 0 354 0;
#X connect 353 1 355 0;
#X connect 354 0 359 0;
#X connect 355 0 364 0;
#X connect 356 0 358 0;
#X connect 357 0 358 0;
#X connect 358 0 359 1;
#X connect 359 0 362 0;
#X connect 360 0 296 0;
#X connect 360 0 434 0;
#X connect 361 0 365 0;
#X connect 362 0 363 0;
#X connect 362 1 361 0;
#X connect 364 0 357 0;
#X connect 364 1 357 0;
#X connect 364 2 357 0;
#X connect 364 3 357 0;
#X connect 364 4 357 0;
#X connect 364 5 357 0;
#X connect 364 6 357 0;
#X connect 364 7 356 0;
#X connect 364 7 367 0;
#X connect 365 0 360 0;
#X connect 366 0 361 1;
#X connect 367 0 366 0;
#X connect 369 0 368 0;
#X connect 376 0 288 0;
#X connect 376 0 429 0;
#X connect 377 0 187 0;
#X connect 379 0 368 0;
#X connect 380 0 424 0;
#X connect 381 0 294 0;
#X connect 383 0 425 0;
#X connect 384 0 296 0;
#X connect 386 0 423 0;
#X connect 387 0 287 0;
#X connect 389 0 422 0;
#X connect 390 0 293 0;
#X connect 391 0 390 0;
#X connect 394 0 412 0;
#X connect 397 0 414 0;
#X connect 400 0 413 0;
#X connect 401 0 27 0;
#X connect 403 0 415 0;
#X connect 404 0 35 0;
#X connect 405 0 404 0;
#X connect 407 0 24 0;
#X connect 408 0 416 0;
#X connect 409 0 407 1;
#X connect 410 0 409 0;
#X connect 412 0 395 0;
#X connect 413 0 401 0;
#X connect 414 0 398 0;
#X connect 415 0 405 0;
#X connect 416 0 410 0;
#X connect 418 0 421 0;
#X connect 419 0 379 1;
#X connect 420 0 419 0;
#X connect 421 0 420 0;
#X connect 422 0 391 0;
#X connect 423 0 387 0;
#X connect 424 0 381 0;
#X connect 425 0 384 0;
#X connect 426 0 352 0;
#X connect 427 0 138 0;
#X connect 427 0 128 0;
#X connect 427 0 119 0;
#X connect 427 0 88 0;
#X connect 427 0 55 0;
#X connect 427 0 45 0;
#X connect 428 0 14 0;
#X connect 428 0 14 1;
#X connect 428 0 37 0;
#X connect 428 0 37 1;
#X connect 429 0 37 1;
#X connect 429 0 37 0;
#X connect 429 0 14 0;
#X connect 429 0 14 1;
#X connect 433 0 438 0;
#X connect 433 0 451 0;
#X connect 434 0 441 0;
#X connect 434 0 455 0;
#X connect 435 0 440 0;
#X connect 435 0 454 0;
#X connect 436 0 439 0;
#X connect 436 0 452 0;
#X connect 437 0 190 0;
#X connect 437 0 478 0;
#X connect 437 0 484 0;
#X connect 442 0 450 0;
#X connect 443 0 444 0;
#X connect 443 0 445 0;
#X connect 445 0 437 0;
#X connect 446 0 465 0;
#X connect 447 0 464 0;
#X connect 448 0 467 0;
#X connect 449 0 468 0;
#X connect 450 0 443 0;
#X connect 451 0 442 0;
#X connect 452 0 451 0;
#X connect 452 1 442 1;
#X connect 453 0 456 0;
#X connect 453 0 457 0;
#X connect 454 0 453 0;
#X connect 455 0 454 0;
#X connect 455 1 453 1;
#X connect 457 1 443 1;
#X connect 458 0 479 0;
#X connect 458 0 483 0;
#X connect 458 0 199 0;
#X connect 459 0 463 0;
#X connect 460 0 461 0;
#X connect 460 0 462 0;
#X connect 462 0 458 0;
#X connect 463 0 460 0;
#X connect 464 0 459 0;
#X connect 465 0 464 0;
#X connect 465 1 459 1;
#X connect 466 0 469 0;
#X connect 466 0 470 0;
#X connect 467 0 466 0;
#X connect 468 0 467 0;
#X connect 468 1 466 1;
#X connect 470 1 460 1;
#X connect 471 0 14 0;
#X connect 471 1 14 1;
#X connect 472 0 14 0;
#X connect 472 1 14 1;
#X connect 475 0 471 1;
#X connect 475 0 477 0;
#X connect 477 0 476 0;
#X connect 478 0 475 0;
#X connect 479 0 475 0;
#X connect 480 0 482 0;
#X connect 480 0 472 1;
#X connect 482 0 481 0;
#X connect 483 0 480 0;
#X connect 484 0 480 0;
#X connect 485 0 196 0;
