#N canvas 952 0 958 956 12;
#X obj 203 352 bng 19 250 50 0 empty empty empty 0 -10 0 12 #fcfcfc #000000 #000000;
#X msg 264 420 0 \, 1 200;
#X obj 264 444 line~;
#X obj 264 468 *~ 8;
#X obj 261 524 cos~;
#X obj 247 739 metro 200;
#X obj 247 763 tabwrite~ \$0-scope;
#X obj 269 579 throw~ \$0-output;
#X obj 43 732 catch~ \$0-output;
#X obj 44 765 /~ 5;
#X obj 44 821 dac~ 1 2;
#X obj 264 492 -~ 0.25;
#X obj 100 -3 cnv 19 126 76 empty empty empty 20 12 0 12 #e0e0e0 #404040 0;
#N canvas 0 50 450 250 (subpatch) 0;
#X array \$0-scope 8820 float 0;
#X coords 0 1 8819 -1 200 140 1 0 0;
#X restore 41 870 graph;
#X msg 99 415 0 \, 1 200;
#X obj 99 439 line~;
#X obj 96 556 cos~;
#X obj 99 524 -~ 0.25;
#X obj 96 469 sqrt~;
#X obj 99 500 *~ 18;
#X text 234 353 Kick, f 5;
#X obj 471 385 bng 19 250 50 0 empty empty empty 0 -10 0 12 #fcfcfc #000000 #000000;
#X obj 471 409 t b b;
#X msg 463 444 1 \, 0 100;
#X obj 462 487 line~;
#X obj 462 511 pow~ 4;
#X obj 462 535 *~;
#X obj 463 579 +~;
#X obj 458 638 throw~ \$0-output;
#X text 34 687 Master output;
#X obj 567 486 line~;
#X obj 567 510 pow~ 4;
#X obj 566 559 *~;
#X msg 565 449 1 \, 0 200;
#X obj 679 480 noise~;
#X text 514 383 Snare;
#X obj 969 534 bng 19 250 50 0 empty empty empty 0 -10 0 12 #fcfcfc #000000 #000000;
#X obj 970 593 line~;
#X obj 970 617 pow~ 4;
#X obj 970 641 *~;
#X obj 970 665 *~ 4;
#X obj 970 689 throw~ \$0-output;
#X obj 1098 559 hip~ 8000;
#X text 1001 532 Hi-hat;
#X obj 458 614 lop~ 5000;
#X obj 1096 592 hip~ 8000;
#X obj 679 504 hip~ 1500;
#X obj 1159 432 phasor~ 350;
#X obj 1159 456 *~ 2;
#X obj 1159 480 -~ 1;
#X obj 1159 521 +~;
#X obj 1257 457 *~ 2;
#X obj 1257 481 -~ 1;
#X obj 1257 433 phasor~ 800;
#X obj 1095 622 hip~ 8000;
#X text 1257 382 make it 808-ish with phasors, f 16;
#X msg 970 569 1 \, 0 100;
#N canvas 0 50 450 250 (subpatch) 0;
#X text 0 0 plugdatainfo <?xml version="1.0" encoding="UTF-8"?> <plugdatainfo/>;
#X coords 0 1 100 -1 1 1 1;
#X restore 0 0 graph;
#X obj 595 104 midiin;
#X obj 595 146 note.in;
#X obj 541 205 nbx 4 18 -1e+37 1e+37 0 0 empty empty empty 0 -8 0 10 #191919 #ffffff #ffffff 0 256;
#X obj 592 205 nbx 4 18 -1e+37 1e+37 0 0 empty empty empty 0 -8 0 10 #191919 #ffffff #ffffff 0 256;
#X obj 661 205 nbx 4 18 -1e+37 1e+37 0 0 empty empty empty 0 -8 0 10 #191919 #ffffff #ffffff 0 256;
#X obj 541 247 mtof;
#X obj 541 285 nbx 4 18 -1e+37 1e+37 0 0 empty empty empty 0 -8 0 10 #191919 #ffffff #ffffff 0 256;
#X obj 407 25 ctlin;
#X obj 369 87 nbx 4 18 -1e+37 1e+37 0 0 empty empty empty 0 -8 0 10 #191919 #ffffff #ffffff 0 256;
#X obj 420 87 nbx 4 18 -1e+37 1e+37 0 0 empty empty empty 0 -8 0 10 #191919 #ffffff #ffffff 0 256;
#X obj 471 87 nbx 4 18 -1e+37 1e+37 0 0 empty empty empty 0 -8 0 10 #191919 #ffffff #ffffff 0 256;
#X connect 0 0 14 0;
#X connect 0 0 1 0;
#X connect 0 0 6 0;
#X connect 1 0 2 0;
#X connect 2 0 3 0;
#X connect 3 0 11 0;
#X connect 4 0 7 0;
#X connect 4 0 6 0;
#X connect 5 0 6 0;
#X connect 8 0 9 0;
#X connect 9 0 10 0;
#X connect 9 0 10 1;
#X connect 11 0 4 0;
#X connect 14 0 15 0;
#X connect 15 0 18 0;
#X connect 16 0 7 0;
#X connect 17 0 16 0;
#X connect 18 0 19 0;
#X connect 19 0 17 0;
#X connect 21 0 22 0;
#X connect 21 0 6 0;
#X connect 22 0 23 0;
#X connect 22 1 33 0;
#X connect 23 0 24 0;
#X connect 24 0 25 0;
#X connect 25 0 26 0;
#X connect 26 0 27 0;
#X connect 27 0 44 0;
#X connect 30 0 31 0;
#X connect 31 0 32 0;
#X connect 32 0 27 1;
#X connect 33 0 30 0;
#X connect 34 0 46 0;
#X connect 36 0 56 0;
#X connect 36 0 6 0;
#X connect 37 0 38 0;
#X connect 38 0 39 0;
#X connect 39 0 40 0;
#X connect 40 0 41 0;
#X connect 40 0 6 0;
#X connect 42 0 45 0;
#X connect 44 0 28 0;
#X connect 44 0 6 0;
#X connect 45 0 54 0;
#X connect 46 0 32 1;
#X connect 47 0 48 0;
#X connect 48 0 49 0;
#X connect 49 0 50 0;
#X connect 50 0 42 0;
#X connect 51 0 52 0;
#X connect 52 0 50 1;
#X connect 53 0 51 0;
#X connect 54 0 39 1;
#X connect 56 0 37 0;
#X connect 58 0 59 0;
#X connect 59 0 60 0;
#X connect 59 1 61 0;
#X connect 59 2 62 0;
#X connect 60 0 63 0;
#X connect 63 0 64 0;
#X connect 65 0 66 0;
#X connect 65 1 67 0;
#X connect 65 2 68 0;
